<svg xmlns="http://www.w3.org/2000/svg" width="1180" height="1180" viewBox="0 0 1180 1180"><style>text{font-family:Arial,sans-serif;fill:#202020}.muted{fill:#71717a}.title{font-weight:600}.small{font-size:12px}.body{font-size:14px}</style><rect width="1180" height="720" fill="#fafafa"/><text x="34" y="38" font-size="22" class="title">Home guidance · shadcn pattern study</text><text x="34" y="64" class="body muted">Schematic alternatives — same continuation and discovery, different composition</text><text x="34" y="108" class="title" font-size="18">A · Item group</text><text x="34" y="132" class="small muted" >Recommended for everyday Home</text><rect x="34" y="152" width="348" height="490" rx="22" fill="#f4f4f5" stroke="#e4e4e7"/><text x="54" y="192" class="body" >☰</text><text x="84" y="193" class="title" font-size="24">Home</text><text x="343" y="193" class="title" font-size="23">+</text><text x="54" y="232" class="small title" >Next steps</text><text x="309" y="232" class="small muted" >View all</text><rect x="50" y="245" width="316" height="161" rx="10" fill="#fff" stroke="#e4e4e7"/><rect x="64" y="266" width="34" height="34" rx="8" fill="#f4f4f5" stroke="#e4e4e7"/><text x="74" y="288" class="body" >▦</text><text x="111" y="275" class="body title" >Plan this week’s meals</text><text x="111" y="296" class="small muted" >Choose from your saved meals.</text><text x="339" y="287" class="body" >›</text><path d="M64 327 H352" stroke="#e4e4e7"/><rect x="64" y="344" width="34" height="34" rx="8" fill="#f4f4f5" stroke="#e4e4e7"/><text x="75" y="367" class="body" >$</text><text x="111" y="355" class="body title" >Discover Money</text><text x="111" y="376" class="small muted" >See where your spending goes.</text><text x="339" y="365" class="body" >›</text><text x="54" y="457" class="small muted" >Household activity</text><rect x="50" y="474" width="316" height="107" rx="12" fill="#fff" stroke="#e4e4e7"/><text x="66" y="504" class="small muted" >Alex · Today</text><text x="66" y="531" class="body" >A little moment from our day.</text><text x="66" y="559" class="small muted" >♡   Reply</text><text x="34" y="675" class="small muted" >Short rows, clear targets, both benefits visible.</text><text x="416" y="108" class="title" font-size="18">B · Small Card</text><text x="416" y="132" class="small muted" >When one invitation needs context</text><rect x="416" y="152" width="348" height="490" rx="22" fill="#f4f4f5" stroke="#e4e4e7"/><text x="436" y="192" class="body" >☰</text><text x="466" y="193" class="title" font-size="24">Home</text><text x="725" y="193" class="title" font-size="23">+</text><rect x="432" y="225" width="316" height="211" rx="10" fill="#fff" stroke="#e4e4e7"/><text x="448" y="253" class="small muted" >NEXT STEP</text><text x="448" y="283" class="title" font-size="18">Plan this week’s meals</text><text x="448" y="307" class="small muted" >Choose from your saved meals.</text><rect x="448" y="322" width="96" height="32" rx="6" fill="#202020" stroke="#202020"/><text x="463" y="343" font-family="Arial" font-size="12" fill="white" style="fill:white">Continue →</text><path d="M433 371 H747" stroke="#e4e4e7"/><text x="448" y="397" class="body title" >Discover Money</text><text x="448" y="416" class="small muted" >See where your spending goes.</text><text x="721" y="405" class="body" >›</text><text x="436" y="475" class="small muted" >Household activity</text><rect x="432" y="492" width="316" height="107" rx="12" fill="#fff" stroke="#e4e4e7"/><text x="448" y="522" class="small muted" >Alex · Today</text><text x="448" y="549" class="body" >A little moment from our day.</text><text x="448" y="577" class="small muted" >♡   Reply</text><text x="416" y="675" class="small muted" >More explanation, more visual weight.</text><text x="798" y="108" class="title" font-size="18">C · Empty + Item</text><text x="798" y="132" class="small muted" >Only when there is no activity</text><rect x="798" y="152" width="348" height="490" rx="22" fill="#f4f4f5" stroke="#e4e4e7"/><text x="818" y="192" class="body" >☰</text><text x="848" y="193" class="title" font-size="24">Home</text><text x="1107" y="193" class="title" font-size="23">+</text><rect x="948" y="235" width="48" height="48" rx="12" fill="#e9e9ec" stroke="#e4e4e7"/><text x="961" y="266" class="title" font-size="23">⌂</text><text x="972" y="318" class="title" text-anchor="middle" font-size="17">Bring your people together</text><text x="972" y="345" class="small muted" text-anchor="middle">Invite someone to plan and share with you.</text><rect x="904" y="364" width="136" height="34" rx="6" fill="#202020" stroke="#202020"/><text x="920" y="386" font-family="Arial" font-size="12" style="fill:white">Explore Household</text><rect x="814" y="433" width="316" height="70" rx="10" fill="#fff" stroke="#e4e4e7"/><text x="830" y="461" class="body title" >Discover Money</text><text x="830" y="482" class="small muted" >See where your spending goes.</text><text x="1103" y="469" class="body" >›</text><text x="798" y="675" class="small muted" >Warm first invitation, no pretend feed.</text></svg>