<svg xmlns="http://www.w3.org/2000/svg" width="512" height="560" viewBox="0 0 128 140">
  <rect width="128" height="140" fill="#f5f5f4"/>
  <g transform="translate(16 14)">
    <ellipse cx="39" cy="93" rx="11" ry="5" fill="#152820" opacity="0.86"/>
    <ellipse cx="57" cy="93" rx="11" ry="5" fill="#152820" opacity="0.86"/>
    <rect x="9" y="7" width="78" height="78" rx="20" fill="#315545"/>
    <clipPath id="kwilt-character-body-preview">
      <rect x="9" y="7" width="78" height="78" rx="20"/>
    </clipPath>
    <g clip-path="url(#kwilt-character-body-preview)">
      <path d="M-2 34C16 20 35 20 49 35C63 50 78 52 99 37" stroke="#FAF7ED" stroke-width="8.5" stroke-linecap="round" fill="none"/>
      <path d="M-1 61C17 43 35 39 52 55C67 69 79 73 99 61" stroke="#FAF7ED" stroke-width="8.5" stroke-linecap="round" fill="none"/>
      <path d="M24 3C18 24 18 47 28 65" stroke="#FAF7ED" stroke-width="7.5" stroke-linecap="round" fill="none"/>
      <path d="M72 2C55 14 43 29 37 46" stroke="#FAF7ED" stroke-width="7.5" stroke-linecap="round" fill="none"/>
      <path d="M63 93C60 73 51 58 35 46" stroke="#FAF7ED" stroke-width="7.5" stroke-linecap="round" fill="none"/>
      <path d="M88 20C71 22 59 30 47 43" stroke="#4F8A72" stroke-width="4" stroke-linecap="round" fill="none" opacity="0.5"/>
      <path d="M8 74C26 82 42 81 57 70" stroke="#4F8A72" stroke-width="4" stroke-linecap="round" fill="none" opacity="0.46"/>
    </g>
    <rect x="9" y="7" width="78" height="78" rx="20" fill="none" stroke="#233F33" stroke-width="2.4" opacity="0.55"/>
    <rect x="34" y="47" width="10" height="3" rx="2" fill="#1C1A19"/>
    <rect x="53" y="47" width="10" height="3" rx="2" fill="#1C1A19"/>
    <rect x="28" y="55" width="9" height="4" rx="2" fill="#E5A493" opacity="0.72"/>
    <rect x="60" y="55" width="9" height="4" rx="2" fill="#E5A493" opacity="0.72"/>
  </g>
</svg>
