<svg xmlns="http://www.w3.org/2000/svg" width="1536" height="760" viewBox="0 0 1536 760" role="img" aria-labelledby="title desc">
  <title id="title">Kwilt chosen K — fair curve refinement</title>
  <desc id="desc">Three contour treatments of the optically centered three-piece K, shown large and at 28 pixels.</desc>
  <rect width="1536" height="760" fill="#F7F2E8"/>
  <style>
    .title { fill:#171817; font:700 30px -apple-system,BlinkMacSystemFont,"Segoe UI",sans-serif; }
    .label { fill:#171817; font:700 21px -apple-system,BlinkMacSystemFont,"Segoe UI",sans-serif; }
    .note { fill:#625F58; font:500 17px -apple-system,BlinkMacSystemFont,"Segoe UI",sans-serif; }
    .guide { fill:none; stroke:#D9D2C6; stroke-width:1; stroke-dasharray:5 5; }
    .mark { fill:#315545; }
  </style>
  <defs>
    <symbol id="f1" viewBox="0 0 256 256"><g class="mark"><path d="M55 10C79.853 10 100 30.147 100 55V190C100 220 78 244 50 248C28 251 10 242 10 226V55C10 30.147 30.147 10 55 10Z"/><path d="M160 10C137 10 119 28 119 51C118 76 118 101 119 126C119 138 127 144 137 139C163 126 188 111 210 93C231 76 244 51 244 25C244 16 237 10 228 10C205 9 182 9 160 10Z"/><path d="M159 148C177 139 199 136 218 136C233 136 244 148 244 163C245 179 245 196 244 212C243 232 227 247 207 248C176 250 145 250 115 248C105 247 100 237 105 228C113 211 121 195 130 179C137 165 147 154 159 148Z"/></g></symbol>
    <symbol id="f2" viewBox="0 0 256 256"><g class="mark"><path d="M55 10C80 10 100 30 100 55V188C100 218 80 242 52 248C30 253 10 244 10 227V55C10 30 30 10 55 10Z"/><path d="M159 10C136 11 118 30 118 53C117 77 117 101 118 124C119 138 127 145 138 139C164 126 190 110 212 90C232 72 244 48 244 24C244 15 237 10 228 10C205 8 182 8 159 10Z"/><path d="M158 147C177 138 199 135 219 136C234 137 244 149 244 164C245 180 245 197 243 213C241 233 225 247 205 248C175 251 145 251 115 248C104 247 99 237 104 227C112 210 121 193 130 177C137 163 147 153 158 147Z"/></g></symbol>
    <symbol id="f3" viewBox="0 0 256 256"><g class="mark"><path d="M55 10C80 10 100 30 100 55C101 98 101 143 99 187C98 217 79 241 52 248C30 254 10 245 10 227C9 170 9 112 10 55C10 30 30 10 55 10Z"/><path d="M159 10C136 11 118 30 117 54C116 77 116 100 118 123C119 138 128 145 139 139C166 126 192 109 214 88C233 70 244 47 244 24C244 15 237 10 228 10C205 8 182 8 159 10Z"/><path d="M157 147C177 137 200 134 220 136C235 138 244 150 244 165C245 181 245 198 242 214C239 234 223 247 203 249C174 252 144 251 115 248C104 247 99 236 104 226C112 209 121 192 130 176C137 162 147 152 157 147Z"/></g></symbol>
  </defs>
  <text class="title" x="768" y="58" text-anchor="middle">Option F · fair-curve refinement</text>
  <text class="note" x="768" y="94" text-anchor="middle">Positions and negative space locked · contour tension only</text>

  <rect class="guide" x="132" y="150" width="256" height="256"/><use href="#f1" x="132" y="150" width="256" height="256"/>
  <rect class="guide" x="640" y="150" width="256" height="256"/><use href="#f2" x="640" y="150" width="256" height="256"/>
  <rect class="guide" x="1148" y="150" width="256" height="256"/><use href="#f3" x="1148" y="150" width="256" height="256"/>

  <text class="label" x="260" y="454" text-anchor="middle">F1 · Controlled fair</text><text class="note" x="260" y="484" text-anchor="middle">recommended baseline</text>
  <text class="label" x="768" y="454" text-anchor="middle">F2 · Pill-forward</text><text class="note" x="768" y="484" text-anchor="middle">fuller crowns and terminals</text>
  <text class="label" x="1276" y="454" text-anchor="middle">F3 · Soft fair</text><text class="note" x="1276" y="484" text-anchor="middle">least straightness</text>

  <text class="note" x="768" y="564" text-anchor="middle">28-pixel navigation-size comparison</text>
  <use href="#f1" x="246" y="590" width="28" height="28"/><use href="#f2" x="754" y="590" width="28" height="28"/><use href="#f3" x="1262" y="590" width="28" height="28"/>
</svg>
